<svg xmlns="http://www.w3.org/2000/svg" viewBox="0 0 233.48 248.25"><defs><style>.cls-1{fill:#ffffff;}</style></defs><g id="Layer_2" data-name="Layer 2"><g id="Layer_1-2" data-name="Layer 1"><path class="cls-1" d="M127.42,84.79a17.19,17.19,0,0,1-2.18.31c-8.83,0-17.66-.11-26.49.09a4.4,4.4,0,0,1-4.42-2.43,15.19,15.19,0,0,0-3-3.76,8.43,8.43,0,0,0-6.79-2.94c-12.65.11-25.32-.18-38,.13-8,.2-14.82,4.56-15.61,12.78-2,2.38-.66,5.49-1.79,8.25-1,2.42-.21,5.58-.21,8.41,0,3-.65,6.18.14,9,1.32,4.63.57,9.62,3.61,14a18,18,0,0,0,10.38,7.58c3.36,1,6.71.92,10.1.92,10.49,0,21,0,31.48.05a5.89,5.89,0,0,0,4.75-1.91,85.36,85.36,0,0,0,10.94-13,23.37,23.37,0,0,1,3-3H64.22V97.11h2.89c22,0,44,0,66-.07,2.58,0,4.46.6,6,2.6a7.93,7.93,0,0,0,.71.71c5,5.07,4.73,6,.12,11.54s-8.87,10.84-13,16.54c-2.61,3.6-5.51,7.07-8.3,10.59-4.64,5.88-9.75,11.41-13.8,17.77-.61,1-1.71,1.59-2.42,2.5a4.63,4.63,0,0,1-4.26,1.86c-3.49-.15-7,0-10.49,0-14.83,0-29.66.3-44.48-.12-8.82-.25-17.34-2.13-24.74-7.79A37.52,37.52,0,0,1,8,142,49.57,49.57,0,0,1,1.8,124.53c-.46-3.06,0-6.27-1-9.06C-.45,111.55.2,107.7,0,103.84c-.2-4.55,1-9,1.21-13.57a39.64,39.64,0,0,1,2.13-10c1.12-3.39,2.95-6.44,4.52-9.63A31.16,31.16,0,0,1,20.74,57.28c4-2.23,8.58-3.37,13.21-4.33C40,51.69,46,52.22,52.06,52.16c15.49-.15,31,0,46.48-.11a5.51,5.51,0,0,1,5.49,3,35.34,35.34,0,0,0,3.87,5.39c4,4.77,7.95,9.63,11.68,14.65,2,2.73,4.45,5.16,6.66,7.75A16.21,16.21,0,0,1,127.42,84.79Z"/><path class="cls-1" d="M173,126.93c-3.31,4.23-6.68,8.21-9.68,12.44C158.6,146,153,151.91,148.7,158.81a4.4,4.4,0,0,1-4,2.37c-10.13-.16-20.27-.07-31-.07,2.23-3,4.07-5.69,6.07-8.21,5.5-6.9,11.16-13.68,16.57-20.65,4.91-6.32,9.6-12.8,14.85-18.86,1.52-1.76,2.46-4,4-5.81s1-2.72-.28-4.2q-6-6.87-11.4-14.24c-3-4-6.51-7.59-9.45-11.62-5-6.8-10.84-12.93-15.29-20.14-.77-1.24-2.12-2.11-3.12-3.23a5.85,5.85,0,0,1-.71-1.58c.56-.23.84-.45,1.13-.45,9.83,0,19.66.06,29.49-.07a4,4,0,0,1,3.74,1.85c3.28,5.26,7.52,9.81,11.06,14.89,2.85,4.08,6.31,7.73,9.47,11.59,1.22,1.49,2.32,3.07,3.6,4.49.19.22,1.52-.08,1.57-.3.62-2.88,3.63-3.92,4.82-6.51,1.1-2.4,3.56-4.15,5.13-6.39,3.92-5.61,8.82-10.47,12.47-16.31A7,7,0,0,1,204,52c8.65.3,17.33.11,26,.11h3.54c-4.87,5.93-9.41,11.26-13.72,16.78s-8.64,10.79-13,16.16c-5,6.2-9.73,12.69-15,18.72a2.37,2.37,0,0,0-.18,3.43c1.38,1.78,2.74,3.57,4.25,5.24,3.24,3.58,6,7.57,9,11.34,3.26,4.1,6.58,8.2,9.69,12.44,2.81,3.84,5.61,7.75,8.67,11.33s5.62,7.88,9,11.33a12.89,12.89,0,0,1,1.24,2c-1.21.11-2,.24-2.73.24-9.16,0-18.33,0-27.5,0-2,0-3.27-.19-4.52-2.5-2-3.75-5.31-6.8-7.93-10.25s-5.18-7.24-8-10.64C179.8,134,177.25,129.68,173,126.93Z"/><path class="cls-1" d="M117.19,248.25c-25.38-24-50.16-48.65-70.54-78,1.42-.07,2.52-.17,3.61-.17,9.83,0,19.65,0,29.47-.06a5.36,5.36,0,0,1,4.72,2C88,176.4,92.18,180.29,95.39,185a10.34,10.34,0,0,0,1.39,1.42l20,20c.88-.73,1.78-1.36,2.55-2.13,6-6,12.06-12,18-18,1.91-1.95,3.52-4.2,5.33-6.26s3.47-3.77,5-5.88c3.45-4.67,7.53-8.87,11.17-13.4,3.5-4.33,6.76-8.84,10.14-13.27,1.37-1.79,2.79-3.56,4.31-5.5,3.13,3.09,5.26,6.67,7.94,9.73,3,3.4,5.4,7.19,8.36,10.57,1.84,2.11,1.8,2.07,0,4.83-2.24,3.39-4.3,6.9-6.6,10.24-1.54,2.24-3.33,4.31-5.07,6.4-3.62,4.34-7.53,8.46-10.85,13-2.25,3.07-5.22,5.42-7.45,8.39-4.68,6.25-10.69,11.19-15.93,16.87-2,2.13-3.47,4.83-5.72,6.56C130.42,234.29,124.51,241.69,117.19,248.25Z"/><path class="cls-1" d="M39.84,42.11a75.83,75.83,0,0,1,15.8-19.06A87.12,87.12,0,0,1,81.89,6.83c5.19-2,10.29-4.56,16-4.72,9.87-3.5,20.1-1.46,30.17-2,8.06,1.7,16.15,3.16,23.86,6.36a97.23,97.23,0,0,1,22.08,13.11A94,94,0,0,1,193.39,40c1.78,2.51,1.83,4.06,0,6.17-5.49,6.27-10.62,12.84-15.56,19.55a23.1,23.1,0,0,1-2.33,2.37c-2.21-4.43-4.29-8.83-7.39-12.66-.63-.78-1.19-1.85-1.94-2.64-1.84-1.93-3.87-3.69-5.62-5.69-5-5.77-11.32-9.81-18.16-12.94-4.2-1.92-8.46-3.84-13.29-4.25-1.79-.15-3.69-.7-5.6-.86a39,39,0,0,1-5.09-1c-3-.65-5.67,1.09-8.58,1s-5.51,1-8.24,1.81C92.81,33.45,90.23,34.44,81,40.49a7.6,7.6,0,0,1-4.32,1.66C64.57,42.07,52.43,42.11,39.84,42.11Z"/></g></g></svg>