<svg xmlns="http://www.w3.org/2000/svg" viewBox="0 0 291.24 49.69"><g id="Layer_2" data-name="Layer 2"><g id="Layer_1-2" data-name="Layer 1"><path fill="#ffffff" d="M66.19,30.42v6.87H97c-.71,1.39-1.22,2.57-1.9,3.63-.86,1.33-1.87,2.56-2.81,3.85s-1.62,2.33-2.48,3.46a2.87,2.87,0,0,1-2.5,1.23c-11-.07-21.93,0-33,0V.42h4.24q25,0,50,0c2.08,0,4.48-.52,4.81,2.66,3.18,3.85,6.38,7.69,9.54,11.55,1.06,1.3,1.94.9,2.77-.19,3.07-4,6.09-8.15,9.22-12.16.76-1,1.56-2,3.21-1.91,4.62.14,9.25,0,14.18,0l-20.35,24c7.42,7.68,13.63,16.63,21,24.88-1.2.26-11.37-.24-13.26.11-1.5.28-2.43-.42-3.42-1.44A64.21,64.21,0,0,1,128,37.88c-1.06-1.64-2.77-2.86-4.3-4.39-3.11,2.52-5.36,5.77-7.57,9a10.11,10.11,0,0,1-1.15,1.52c-1.75,1.79-3.25,4.16-5.38,5.13-1.93.88-4.58.38-6.89.18s-4.53.88-6.57-.67a60.48,60.48,0,0,1,3.36-5.09c2.13-2.66,4.47-5.15,6.68-7.75,1.56-1.83,3.06-3.73,4.6-5.58s3.07-3.66,4.78-5.68l-19-22.89c-3.21,1.86-4.32,5.68-6.33,8.73a3.61,3.61,0,0,1-3.43,2c-6.8,0-13.6,0-20.53,0v6.93H93.11C93,21.78,91.6,23,90.54,24.57c-1.23,1.8-1.53,4.59-3.65,5.36s-4.52.45-6.8.47C75.59,30.46,71.09,30.42,66.19,30.42Z"/><path fill="#ffffff" d="M291.09,19.42c0,9.16,0,18,0,26.77,0,2.49-.7,3.2-3.13,3.21-6.83.05-13.72.6-20.46-.19-4.24-.5-8.73-.34-12.86-2.6-5.78-3.17-10.74-8.27-12.54-14.2a26.68,26.68,0,0,1,1.19-19.16,19.56,19.56,0,0,1,8.36-9A28.07,28.07,0,0,1,266.06.39c8.28.11,16.56,0,25.18,0-2.54,4-4.8,7.71-7.21,11.3-.32.48-1.36.66-2.07.67-5.16,0-10.34.32-15.48,0A12.86,12.86,0,0,0,253,26.41c.5,4.83,6,10.66,10.92,11,.66.05,1.33,0,2,0h13v-7h-15.8c-.67,0-1.33,0-2,0-1-.05-1.51-1-.89-1.62a14.4,14.4,0,0,0,2.9-4.81,8.35,8.35,0,0,1,3.15-4.08c1.45-.75,3.49-.45,5.28-.47C277.93,19.39,284.26,19.42,291.09,19.42Z"/><path fill="#ffffff" d="M38,37.42v-7H18.66c2.19-3.35,4-6.21,5.89-9a4.94,4.94,0,0,1,4.63-2.15c6.81.21,13.63.08,20.91.08v8.35c0,6.16,0,12.32,0,18.48,0,2.45-.72,3.14-3.19,3.15-7.16,0-14.32.08-21.48,0-1.53,0-3-.72-4.58-.92a29,29,0,0,1-4.62-.9A22.39,22.39,0,0,1,1.11,30.36C.76,28.34,0,26.48,0,24.28c.26-10,5.52-19.4,17-22.84A21.48,21.48,0,0,1,23.59.36c8.16.15,16.32.06,24.47.06h2.29c-2.26,3.71-4.29,7-6.25,10.28a3.21,3.21,0,0,1-3.16,1.75c-5.32-.09-10.65,0-16,0-6,0-9.68,3.27-12,8.86-1.82,4.37-.28,7.89,1.75,11A11.33,11.33,0,0,0,25,37.45C29.25,37.3,33.55,37.42,38,37.42Z"/><path fill="#ffffff" d="M225.62,37.42c-4-7.06-7.55-13.4-11.18-19.86a15.06,15.06,0,0,0-2.32,2.64c-2.15,3.93-3.86,8.13-6.3,11.86-3.25,5-5.4,10.5-8.67,15.43-1,1.44-1.86,2-3.47,1.94-1-.07-2,.08-3,0-2.86-.3-5.83.8-8.59-.67,1.33-2.28,2.65-4.57,4-6.84,3.72-6.28,6.71-13,10.93-19,.95-1.36,1.28-3.14,2.09-4.62,2.61-4.76,5.23-9.51,8-14.17,1.78-3,7.45-5.2,10.24-3.58a14.3,14.3,0,0,1,4.85,5.28c3.83,6.57,7.09,13.44,11,19.94,4.31,7.2,8.16,14.66,12.54,21.81a9.29,9.29,0,0,1,.56,1.59H202a41.83,41.83,0,0,1,2.18-5c1-1.74,2.43-3.19,3.05-5.25.36-1.22,1.74-1.64,3.29-1.59C215.26,37.52,220.06,37.42,225.62,37.42Z"/><path fill="#ffffff" d="M178.26,49.32h-12V12.52H149.09c1.67-4.11,4.91-6.81,6.19-10.69.22-.65,1.5-1.06,2.36-1.37a6.22,6.22,0,0,1,2,0h39.55c-2.32,3.86-4.43,7.52-6.74,11a3.49,3.49,0,0,1-2.55.92c-3.82.09-7.63,0-11.62,0Z"/></g></g></svg>